<svg xmlns="http://www.w3.org/2000/svg" viewBox="0 0 1000 1000"><path d="M179.62 13.39c-12.1 5.21-13.14 9.8-13.14 64.66 0 53.4.83 58.4 11.47 63.2 9.8 4.38 19.61 3.13 26.28-3.54l6.05-6.05V56.15h267v711.28h-35.67c-22.11 0-37.34.83-40.05 2.3-12.72 6.46-16.06 23.99-6.88 34.63l5.01 5.84 50.27 1.04c27.74.63 72.8.63 100.54 0l50.27-1.04 5-5.84c5.63-6.47 6.47-16.69 2.5-25.45-4.59-10.01-10.64-11.47-49.64-11.47h-35.46V56.15h267V131.66l6.05 6.05c10.01 9.8 27.12 7.72 34.21-4.38 3.13-5 3.55-12.93 3.55-55.28 0-55.07-.83-59.45-13.56-64.87-10.65-4.38-630.79-4.17-640.8.21z"/><path d="M221.76 771.4c-9.8 6.26-96.58 94.49-98.87 100.75-4.38 11.89-.63 17.1 50.27 67.79 36.71 36.29 50.27 48.39 55.28 49.64 14.81 3.13 29.83-11.89 26.49-26.7-1.04-4.59-9.18-14.6-28.58-34.21l-27.12-27.74h601.98l-27.11 27.74c-19.4 19.61-27.53 29.62-28.58 34.21-3.34 14.81 11.68 29.83 26.49 26.7 8.97-2.09 103.04-94.91 105.55-104.29 3.34-12.31-.42-17.1-48.18-65.29-46.1-46.1-53.61-52.56-62.16-52.56-12.72 0-24.61 14.6-21.9 26.91.63 3.54 11.47 15.85 28.16 32.54 15.02 15.02 27.12 27.74 27.12 28.58 0 1.04-135.16 1.67-300.37 1.67-165.2 0-300.37-.63-300.37-1.67 0-.83 11.68-13.14 26.07-27.53 28.78-28.78 32.33-34.83 27.33-46.51-5.22-12.95-19.82-17.33-31.5-10.03z"/></svg>